# xmcd
#
# Track frame offsets: 
#        150
#        15015
#        38655
#        52407
#        67062
#        82100
#        95645
#        108212
#        124365
#        137275
#        150202
#        164787
#        177262
#        190900
#        221307
#        236550
#
# Disc length: 3309 seconds
#
# Revision: 1
# Processed by: cddbd v1.5.2PL0 Copyright (c) Steve Scherf et al.
# Submitted via: ExactAudioCopy v1.0b3
#
DISCID=d50ceb10
DTITLE=Various Artist - New Orleans Function
DYEAR=1995
DGENRE=Jazz
TTITLE0=Sidney Bechet - At a Georgia Camp Meeting
TTITLE1=W. De Paris - The Martinique
TTITLE2=Kid Ory and Creole Jazz Band - Savoy Blues
TTITLE3=Kid Ory and Creole Jazz Band - Milenberg Joys
TTITLE4=Kid Ory and Creole Jazz Band - St. James Infirmary
TTITLE5=Wilbur De Paris - Shreveport Stomp
TTITLE6=Kid Ory and Creole Jazz Band - Creole Bo Bo
TTITLE7=Bunks Brass Band - Just a Little While To Stay Here
TTITLE8=Kid Ory and Creole Jazz Band - Buckets Got a Hole In It
TTITLE9=Sidney Bechet - Jelly Roll Blues
TTITLE10=Wilbur de Paris - Tres Moutarde
TTITLE11=Kid Ory and Creole Jazz Band - Creole Song
TTITLE12=Turk Murphy Jazz Band - Big Fat Ham
TTITLE13=Louis Armstrong - New Orleans Function
TTITLE14=Kid Ory and Creole Jazz Band - The Worlds Jazz Crazy, Lawdy So 
TTITLE14=I Am
TTITLE15=Bob Crosby - King Cotton March
EXTD=YEAR: 1995
EXTT0=
EXTT1=
EXTT2=
EXTT3=
EXTT4=
EXTT5=
EXTT6=
EXTT7=
EXTT8=
EXTT9=
EXTT10=
EXTT11=
EXTT12=
EXTT13=
EXTT14=
EXTT15=
PLAYORDER=
